<svg width="160" height="138" viewBox="0 0 160 138" fill="none" xmlns="http://www.w3.org/2000/svg">
<g clip-path="url(#clip0_1361_10945)">
<path d="M0 2.91294C0 46.9532 0 90.9668 0 135.007C0 136.637 1.38091 138 2.97427 138H157.105C160.956 138 160.956 131.987 157.105 131.987H2.97427L5.94855 134.98C5.94855 90.94 5.94855 46.9265 5.94855 2.88622C5.9751 -0.961959 0 -0.961959 0 2.91294Z" fill="white"/>
<path d="M36.8327 84.4462C45.968 78.7007 55.0767 72.9818 64.212 67.2363L60.6004 66.7553C66.363 74.1844 72.0991 81.6135 77.8618 89.0426C78.6054 90.0047 80.4908 90.1918 81.4734 89.5237C95.3888 79.7963 109.304 70.0957 123.246 60.3684C124.494 59.4865 125.291 57.6693 124.308 56.2529L117.138 45.8308L114.562 50.3471C122.263 49.6255 129.991 48.9307 137.692 48.2092L134.824 44.4145C132.036 52.2177 129.248 60.021 126.459 67.8242L131.93 67.1027C129.407 63.495 126.858 59.8873 124.335 56.2529C122.131 53.1263 116.952 56.1193 119.183 59.2994C121.706 62.9071 124.255 66.5148 126.778 70.1492C128.292 72.3138 131.346 71.9396 132.249 69.4276C135.037 61.6244 137.825 53.8211 140.614 46.0179C141.224 44.2808 139.578 42.0361 137.746 42.2231C130.044 42.9447 122.317 43.6395 114.615 44.361C112.571 44.5481 110.632 46.8463 112.039 48.8773L119.21 59.2994L120.272 55.184C106.356 64.9113 92.441 74.612 78.4991 84.3393L82.1108 84.8203C76.3481 77.3912 70.612 69.9621 64.8493 62.533C64.0792 61.5175 62.2469 61.4106 61.2377 62.0519C52.1025 67.7975 42.9937 73.5163 33.8585 79.2619C30.5921 81.3196 33.5929 86.5039 36.8859 84.4462H36.8327Z" fill="white"/>
</g>
<defs>
<clipPath id="clip0_1361_10945">
<rect width="160" height="138" fill="white"/>
</clipPath>
</defs>
</svg>
