<svg width="146" height="232" viewBox="0 0 146 232" fill="none" xmlns="http://www.w3.org/2000/svg">
<g clip-path="url(#clip0_1361_10953)">
<path d="M84.5744 90.2431C77.0577 105.208 71.2114 120.988 68.7374 137.584C66.0742 155.42 66.9409 173.475 69.0368 191.31C70.5653 204.361 72.6927 217.349 74.9776 230.29C75.4977 233.271 80.0675 232 79.5318 229.035C75.8601 208.314 72.409 187.388 71.8417 166.322C71.4163 150.275 73.0709 134.337 77.8299 118.965C80.6348 109.867 84.3853 101.114 88.6558 92.6274C90.011 89.9294 85.9296 87.5451 84.5744 90.2588V90.2431Z" fill="white"/>
<path d="M75.9699 205.961C80.8234 201.082 85.1884 195.781 90.2311 191.09C91.1293 190.243 91.145 188.596 90.2311 187.765C89.254 186.871 87.8516 186.871 86.8903 187.765C81.8477 192.455 77.4826 197.773 72.6291 202.635C71.7624 203.514 71.6836 205.098 72.6291 205.961C73.5746 206.824 75.0401 206.902 75.9699 205.961Z" fill="white"/>
<path d="M90.7996 189.82C93.6519 167.216 107.74 146.667 126.823 134.4C132.275 130.902 138.106 128.078 144.252 126.023L141.257 123.749C140.674 147.42 126.004 168.235 105.77 179.859C100.097 183.122 94.0616 185.663 87.8056 187.545C84.9061 188.423 86.1352 192.973 89.0662 192.078C112.83 184.91 133.441 168.188 142.061 144.596C144.504 137.914 145.827 130.855 146.001 123.749C146.032 122.29 144.456 121.004 143.007 121.474C119.7 129.286 100.522 147.404 91.2251 170.023C88.6092 176.376 86.9389 182.996 86.0879 189.804C85.7097 192.8 90.4372 192.769 90.8154 189.804L90.7996 189.82Z" fill="white"/>
<path d="M45.495 120.424C50.7267 131.843 57.1088 143.216 68.2499 149.867C70.8657 151.42 73.2452 147.357 70.6294 145.804C60.2132 139.592 54.4457 128.69 49.5764 118.055C49.0406 116.894 47.3702 116.612 46.3459 117.208C45.1483 117.898 44.9592 119.263 45.495 120.424Z" fill="white"/>
<path d="M46.3613 116.016C37.6627 114.62 29.1218 112 22.33 106.18C11.0786 96.5646 6.99723 81.5842 5.6105 67.4195C5.23231 63.6234 4.91714 59.8274 4.79107 56.0156C4.68077 52.9411 4.28681 48.4705 5.45292 45.8038L2.78978 46.8862C5.57899 47.8744 7.21784 48.5332 9.80219 49.8038C13.9466 51.8431 17.9019 54.2901 21.4948 57.1921C32.494 66.0548 39.7743 78.3529 43.1151 91.9999C45.2897 100.91 45.1794 110.086 45.1794 119.231C45.1794 122.259 49.9069 122.259 49.9069 119.231C49.9069 110.933 50.0645 102.447 48.4414 94.2587C46.8183 86.0705 43.8715 77.9136 39.5065 70.6823C33.3135 60.4234 24.2525 51.9999 13.5999 46.447C10.5271 44.847 7.31239 43.498 4.03468 42.3372C3.15222 42.0234 1.74974 42.5254 1.37154 43.4195C0.000572837 46.5568 -0.0151854 50.1646 0.000572806 53.5215C0.0320893 57.3332 0.299979 61.145 0.64666 64.9411C1.41881 73.5529 2.69523 82.1489 5.86263 90.2431C10.5743 102.243 19.0523 111.89 31.1231 116.847C35.6142 118.682 40.3259 119.78 45.1006 120.549C48.0789 121.035 49.3553 116.502 46.3613 116.016Z" fill="white"/>
<path d="M88.4185 89.4432C81.217 63.8432 93.8709 38.1961 110.622 19.3099C115.397 13.9138 120.55 8.8785 125.844 4.01575L121.81 2.35301C124.867 27.7491 118.375 55.5452 102.128 75.7177C97.8262 81.0667 92.689 85.6471 86.433 88.6118C83.691 89.9138 86.0863 93.9765 88.8125 92.6746C100.6 87.0903 108.794 76.0314 114.766 64.8314C121.227 52.706 125.23 39.3883 126.695 25.7412C127.53 17.9608 127.467 10.1177 126.522 2.35301C126.286 0.360851 124.095 -0.784247 122.488 0.690263C102.869 18.6824 84.8256 40.5648 81.9734 67.9373C81.1855 75.5609 81.7685 83.3099 83.8486 90.6981C84.6681 93.6158 89.2222 92.3765 88.4028 89.4432H88.4185Z" fill="white"/>
</g>
<defs>
<clipPath id="clip0_1361_10953">
<rect width="146" height="232" fill="white"/>
</clipPath>
</defs>
</svg>
