<svg width="396" height="133" viewBox="0 0 396 133" fill="none" xmlns="http://www.w3.org/2000/svg">
<g clip-path="url(#clip0_1796_1054)">
<path d="M50.5136 77.6572L61.4072 83.8432L12.3418 111.711V91.4153L0 98.4318V133.012L86.5629 83.855L63.0811 70.5107L50.5136 77.6572Z" fill="#27E090"/>
<path d="M61.4072 49.1479L0 84.0235V98.42L12.3418 91.4035L43.5248 73.6702L56.0923 66.5236L86.5629 49.1302L0 0V48.8583L24.971 63.0982L37.5239 55.9664L12.3418 41.6142V21.28L61.4072 49.1479Z" fill="#0000FF"/>
<path d="M181.102 106.069H162.903V67.233L145.536 96.1767H143.693L126.429 67.3364V106.054H108.136V33.9564H126.429L144.619 64.7592L162.903 33.9564H181.093L181.102 106.069Z" fill="#020251"/>
<path d="M190.401 40.4468C190.401 38.4903 190.977 36.5777 192.055 34.9509C193.133 33.3242 194.666 32.0563 196.458 31.3075C198.251 30.5588 200.224 30.3629 202.127 30.7446C204.031 31.1263 205.779 32.0685 207.151 33.4519C208.524 34.8354 209.458 36.598 209.837 38.5169C210.215 40.4358 210.021 42.4248 209.278 44.2324C208.536 46.04 207.278 47.5849 205.664 48.6719C204.051 49.7589 202.154 50.339 200.213 50.339C198.925 50.339 197.649 50.0832 196.458 49.586C195.268 49.0889 194.186 48.3602 193.275 47.4416C192.364 46.5231 191.641 45.4326 191.148 44.2324C190.655 43.0322 190.401 41.7459 190.401 40.4468ZM191.732 54.5625H208.694V106.069H191.732V54.5625Z" fill="#020251"/>
<path d="M268.468 75.2662V106.069H251.506V77.4208C251.637 76.3563 251.533 75.2759 251.2 74.257C250.867 73.2382 250.315 72.3063 249.582 71.5284C248.85 70.7504 247.956 70.1457 246.964 69.7576C245.972 69.3696 244.907 69.2079 243.846 69.2841C238.634 69.2841 235.468 72.4791 235.468 78.6592V106.06H218.506V54.5625H235.468V59.7111C237.116 57.521 239.273 55.7737 241.75 54.6237C244.227 53.4737 246.946 52.9563 249.668 53.1172C260.193 53.1172 268.468 60.4323 268.468 75.2662Z" fill="#020251"/>
<path d="M298.719 70.9392V85.8766C298.719 90.7149 302.498 91.0252 309.346 90.6055V106.054C288.494 108.631 281.754 102.141 281.754 86.2756V70.9392H274.091V54.5625H281.757V45.2791L298.719 40.1305V54.5566H309.346V70.9333L298.719 70.9392Z" fill="#020251"/>
<path d="M315.889 40.4468C315.889 38.4896 316.465 36.5765 317.543 34.9494C318.622 33.3223 320.155 32.0544 321.949 31.3061C323.743 30.5578 325.717 30.3628 327.62 30.7457C329.524 31.1286 331.272 32.0722 332.644 33.4571C334.015 34.8421 334.949 36.6061 335.326 38.526C335.703 40.4458 335.506 42.4353 334.761 44.2426C334.017 46.0499 332.757 47.5939 331.141 48.6791C329.526 49.7642 327.627 50.3419 325.686 50.339C323.086 50.3351 320.594 49.2912 318.757 47.4364C316.92 45.5817 315.889 43.0678 315.889 40.4468ZM317.211 54.5625H334.173V106.069H317.211V54.5625Z" fill="#020251"/>
<path d="M364.016 54.5625H372.811V70.9393H364.016V106.069H347.054V70.9393H340.604V54.5625H347.054C347.054 40.1364 355.432 31.3762 372.808 32.3958V48.2613C367.378 47.8652 364.016 49.8218 364.016 54.5625Z" fill="#020251"/>
<path d="M376.376 40.4468C376.376 38.4903 376.951 36.5777 378.03 34.9509C379.108 33.3242 380.64 32.0563 382.433 31.3075C384.226 30.5588 386.199 30.3629 388.102 30.7446C390.006 31.1263 391.754 32.0685 393.126 33.4519C394.498 34.8354 395.433 36.598 395.811 38.5169C396.19 40.4358 395.995 42.4248 395.253 44.2324C394.51 46.04 393.253 47.5849 391.639 48.6719C390.025 49.7589 388.128 50.339 386.188 50.339C383.586 50.339 381.09 49.2968 379.25 47.4416C377.41 45.5865 376.376 43.0704 376.376 40.4468ZM377.707 54.5625H394.669V106.069H377.707V54.5625Z" fill="#020251"/>
</g>
<defs>
<clipPath id="clip0_1796_1054">
<rect width="396" height="133" fill="white"/>
</clipPath>
</defs>
</svg>
