<?xml version="1.0" encoding="UTF-8"?><svg id="Layer_2" xmlns="http://www.w3.org/2000/svg" viewBox="0 0 244.33 349.22"><defs><style>.cls-1{fill:#f47a20;stroke-width:0px;}</style></defs><g id="Layer_1-2"><path class="cls-1" d="M122.05,349.22c-7.29-8.78-14.44-17.14-21.31-25.73-26.67-33.32-51.25-68.07-71.15-105.95-11.92-22.7-21.74-46.19-27.08-71.44C-10.37,85.16,27.44,22.18,87.47,4.97c69.81-20.01,139.87,22.21,154.53,93.27,5.07,24.57,1.41,48.46-6.54,71.9-12.23,36.01-31.17,68.52-52.24,99.88-17.94,26.71-37.58,52.14-58.66,76.46-.62.72-1.28,1.4-2.51,2.75ZM121.93,165.57c24.1.09,43.55-19.04,43.7-42.98.15-24.36-18.99-43.86-43.12-43.95-24.09-.09-43.56,19.05-43.7,42.97-.15,24.34,19.01,43.87,43.13,43.96Z"/></g></svg>