<svg width="188" height="136" viewBox="0 0 188 136" fill="none" xmlns="http://www.w3.org/2000/svg">
<g clip-path="url(#clip0_3205_2064)">
<path d="M102.23 43.2933C112.951 28.5518 131.188 26.3166 144.334 33.847C156.887 41.0315 165.238 58.1945 156.052 76.1025C161.521 81.1849 165.103 87.3583 166.747 94.6758C170.949 113.542 157.21 133.046 137.815 135.574C135.93 135.814 133.99 135.973 132.104 135.973C96.5732 135.973 61.0689 135.973 25.5378 135.973C13.2002 135.973 2.55969 127.512 0.431595 116.043C-1.83119 103.856 4.52616 92.2278 16.2711 87.9969C20.1232 86.6132 24.4333 86.4802 28.8511 85.7351C29.1744 67.9335 36.6901 53.2718 52.799 43.7723C68.9079 34.2728 85.5555 34.6985 102.203 43.2667L102.23 43.2933ZM79.3867 130.252C97.1658 130.252 114.972 130.306 132.751 130.252C144.792 130.199 155.486 122.882 159.689 112.025C163.999 100.823 161.17 88.3694 152.2 80.4399C143.957 73.1755 134.394 71.1 123.754 74.2133C120.629 75.118 119.74 74.7189 118.555 71.712C117.827 69.876 117.154 68.0399 116.211 66.3103C107.537 50.1851 93.8794 41.9362 75.4538 42.8409C57.9172 43.7191 45.4988 52.846 38.1986 68.5987C35.1546 75.1446 34.4273 82.0896 34.993 89.2475C35.2354 92.4406 33.7808 93.5582 30.7099 92.8398C29.2283 92.4939 27.7197 92.0947 26.2112 92.0149C15.7324 91.4561 6.38488 99.8912 5.84612 109.843C5.22655 121.445 14.7356 130.412 25.3492 130.332C43.3707 130.199 61.3922 130.306 79.4137 130.306L79.3867 130.252ZM107.214 46.6993C114.595 52.3671 120.009 59.5516 123.376 68.1464C134.367 66.2837 140.832 66.7893 151.23 72.2176C157.103 62.3455 154.517 46.9388 142.179 39.2487C130.461 31.9311 114.083 35.3637 107.214 46.6993Z" fill="white"/>
<path d="M104.439 30.4144C103.846 31.1328 103.334 32.3036 102.499 32.5697C101.583 32.8624 99.9672 32.6762 99.4015 32.0375C95.253 27.3809 91.2393 22.6179 87.3333 17.8016C86.3366 16.5775 86.5521 15.0342 87.899 13.9698C89.1381 12.9853 90.6197 13.0119 91.6164 14.1561C95.684 18.8659 99.6708 23.6556 103.658 28.4453C104.008 28.871 104.116 29.5363 104.439 30.4144Z" fill="white"/>
<path d="M184.848 78.6037C180.484 77.5127 176.04 76.3951 171.595 75.3041C169.952 74.905 168.308 74.5591 166.719 74.0535C165.049 73.5213 164.214 72.2973 164.726 70.5411C165.238 68.7849 166.558 68.1729 168.309 68.5986C174.1 70.0089 179.892 71.4458 185.657 72.9359C187.246 73.335 188.216 74.426 188 76.1024C187.785 77.7256 186.653 78.5771 184.848 78.6303V78.6037Z" fill="white"/>
<path d="M150.044 29.7757C147.323 29.7225 145.895 27.5139 147.107 25.5448C150.286 20.3028 153.626 15.1672 157.02 10.0316C157.936 8.64792 159.445 8.43504 160.873 9.33976C162.327 10.2711 162.65 11.708 161.788 13.0917C158.556 18.3071 155.243 23.4693 151.875 28.5783C151.444 29.2435 150.448 29.5362 150.097 29.7757H150.044Z" fill="white"/>
<path d="M185.575 40.2333C185.198 40.6591 184.578 41.8299 183.636 42.229C178.086 44.544 172.456 46.6994 166.826 48.8813C165.21 49.4934 163.917 48.9346 163.19 47.4444C162.408 45.8213 162.947 44.3578 164.617 43.6925C170.247 41.3775 175.931 39.1157 181.642 36.987C183.743 36.2153 185.521 37.4926 185.575 40.2599V40.2333Z" fill="white"/>
<path d="M127.875 20.6222C127.767 22.1922 126.959 23.5226 125.046 23.6025C123.134 23.6557 122.137 22.4317 122.029 20.5956C121.652 14.7948 121.329 8.99398 120.978 3.19316C120.871 1.33051 121.652 0.0798746 123.672 4.67479e-05C125.504 -0.0531718 126.474 0.957981 126.582 2.76741C126.986 8.64806 127.444 14.5021 127.875 20.6222Z" fill="white"/>
</g>
<defs>
<clipPath id="clip0_3205_2064">
<rect width="188" height="136" fill="white"/>
</clipPath>
</defs>
</svg>
