<svg width="462" height="149" viewBox="0 0 462 149" fill="none" xmlns="http://www.w3.org/2000/svg">
<path d="M149.322 18.9766C137.793 36.78 126.268 54.5872 114.739 72.3907C113.287 74.6348 109.572 79.5023 109.572 79.5023C109.572 79.5023 95.2319 79.5023 88.9872 79.401C80.6672 79.2696 75.8373 89.0345 71.9418 96.39C63.8395 111.69 55.7333 126.991 47.631 142.295C46.8692 143.736 45.049 147.417 45.049 147.417L0 147.519C0 147.519 44.0132 96.1799 63.3516 73.4452C67.0969 69.0431 71.529 65.1627 77.3046 65.1627C85.6697 65.1627 93.4944 67.6546 101.206 66.3561C107.147 65.3541 111.598 60.5467 115.546 55.6005C126.005 42.5106 137.785 31.1282 149.322 18.9766Z" fill="black"/>
<path d="M104.232 31.0232C107.366 32.9409 109.648 35.992 110.597 39.5421C112.575 46.9728 108.154 54.6023 100.723 56.58C99.6013 56.8802 98.4417 57.0379 97.2783 57.0491C92.3996 57.1917 87.8137 54.7261 85.2505 50.5717L84.6801 49.7086C83.4191 47.0966 82.9087 44.1882 83.2014 41.3022C84.1959 34.0855 90.527 28.8165 97.8037 29.143C100.052 29.3232 102.243 29.9649 104.232 31.027V31.0232Z" fill="#BFD8F0"/>
<path d="M51.5195 147.417C51.5195 147.417 69.8559 108.718 77.6393 95.1216C80.0936 90.8359 80.9755 88.9708 84.4694 85.4769C86.86 83.0863 90.4439 83.0863 91.6411 83.0863H113.152C113.152 83.0863 115.52 78.6354 116.733 76.6127C127.143 59.2295 137.553 41.8427 147.967 24.4595C149.24 22.3317 150.868 19.9711 153.338 19.731C144.383 39.5347 135.474 59.3609 126.471 79.1421C120.324 92.6485 118.703 93.9845 115.543 95.0391C111.959 96.2325 105.981 96.2325 102.081 96.6153C100.145 96.8029 97.8182 96.4764 96.7112 98.0751C96.2346 98.7619 96.0995 99.625 95.9756 100.454C93.8553 114.741 89.577 147.522 89.577 147.522L51.5195 147.421V147.417Z" fill="#BFD8F0"/>
<path d="M99.5999 35.1775C102.666 37.0539 104.895 40.0374 105.826 43.5087C107.762 50.778 103.435 58.2386 96.166 60.1751C95.0665 60.4678 93.9369 60.6217 92.796 60.6329C88.0224 60.7755 83.5377 58.3587 81.0309 54.2981L80.4717 53.4538C79.2408 50.8981 78.7379 48.0534 79.0231 45.2313C79.9988 38.1722 86.1872 33.0158 93.3064 33.3386C95.5055 33.515 97.6484 34.1417 99.5961 35.1812L99.5999 35.1775Z" fill="black"/>
<path d="M164.484 7.96585C164.446 12.3266 160.881 15.8318 156.516 15.7943C152.253 15.7567 148.793 12.3454 148.688 8.08594C148.583 3.72515 152.035 0.107416 156.392 0.00233632C160.753 -0.102743 164.371 3.34986 164.476 7.70691C164.476 7.79322 164.476 7.87954 164.476 7.96585H164.484Z" fill="black"/>
<path d="M116.683 131.731C116.683 139.874 116.905 143.421 117.903 144.419C118.789 145.305 120.23 145.695 124.553 145.695C127.491 145.695 129.927 145.639 131.259 144.032C131.98 143.147 132.535 141.762 132.7 140.707C132.757 140.265 132.865 139.987 133.199 139.987C133.477 139.987 133.533 140.208 133.533 140.816C133.533 141.424 133.147 144.749 132.704 146.355C132.318 147.631 132.149 147.853 129.214 147.853C124.448 147.853 119.738 147.519 114.364 147.519C112.645 147.519 110.983 147.684 108.934 147.684C108.326 147.684 108.048 147.571 108.048 147.241C108.048 147.076 108.161 146.907 108.491 146.907C108.99 146.907 109.654 146.794 110.153 146.686C111.26 146.464 111.538 145.245 111.76 143.638C112.037 141.312 112.037 136.936 112.037 131.614V121.861C112.037 113.218 112.037 111.664 111.925 109.893C111.812 108.009 111.369 107.123 109.542 106.733C109.099 106.62 108.157 106.568 107.658 106.568C107.436 106.568 107.215 106.455 107.215 106.234C107.215 105.9 107.493 105.791 108.101 105.791C110.592 105.791 114.086 105.956 114.36 105.956C114.634 105.956 118.684 105.791 120.346 105.791C120.954 105.791 121.232 105.904 121.232 106.234C121.232 106.455 121.01 106.568 120.789 106.568C120.402 106.568 119.625 106.624 118.961 106.733C117.355 107.011 116.912 107.953 116.8 109.893C116.687 111.664 116.687 113.218 116.687 121.861V131.723L116.683 131.731Z" fill="black"/>
<path d="M138.957 129.79C138.957 122.42 144.665 111.394 158.352 111.394C169.321 111.394 177.69 117.931 177.69 129.07C177.69 140.208 169.877 148.296 158.074 148.296C144.5 148.296 138.957 138.212 138.957 129.79ZM172.481 130.455C172.481 119.316 165.61 113.113 158.021 113.113C150.433 113.113 144.113 117.879 144.113 128.349C144.113 138.82 150.152 146.412 159.463 146.412C163.174 146.412 172.485 144.528 172.485 130.455H172.481Z" fill="black"/>
<path d="M193.368 128.297C195.917 126.026 201.955 120.262 204.451 117.549C207.111 114.61 207.333 114.336 207.333 113.725C207.333 113.338 207.111 113.06 206.447 112.839C206.061 112.726 205.839 112.617 205.839 112.396C205.839 112.231 205.952 112.062 206.395 112.062C206.729 112.062 208.387 112.227 210.162 112.227C211.825 112.227 214.872 112.062 215.593 112.062C216.37 112.062 216.478 112.175 216.478 112.396C216.478 112.617 216.313 112.783 215.87 112.839C214.985 112.895 213.821 113.117 213.157 113.394C211.829 113.837 211.108 114.449 208.226 117.05C204.18 120.705 199.362 125.415 196.922 127.633C199.913 130.736 208.89 139.6 211.217 141.706C215.094 145.252 216.977 146.25 219.195 146.749C219.803 146.862 219.529 146.806 220.471 146.915C220.971 146.971 221.248 147.08 221.248 147.357C221.248 147.579 220.971 147.691 220.363 147.691H216.76C212.437 147.691 211.329 147.192 209.112 145.642C206.62 143.871 197.752 134.782 193.376 129.629V134.005C193.376 138.272 193.32 142.148 193.597 144.145C193.819 145.751 194.04 146.363 195.481 146.693C196.202 146.858 197.365 146.915 197.587 146.915C198.086 146.971 198.195 147.08 198.195 147.301C198.195 147.523 197.973 147.688 197.418 147.688C194.592 147.688 191.379 147.523 191.102 147.523C190.937 147.523 187.668 147.688 186.114 147.688C185.615 147.688 185.229 147.575 185.229 147.301C185.229 147.08 185.45 146.915 185.949 146.915C186.227 146.915 186.835 146.858 187.278 146.749C188.22 146.528 188.385 145.421 188.554 144.089C188.831 142.092 188.831 138.159 188.831 134.005V125.692C188.831 118.378 188.831 117.05 188.719 115.552C188.61 114.055 188.276 113.225 187.112 113.004C186.557 112.891 186.17 112.891 185.836 112.839C185.45 112.783 185.229 112.674 185.229 112.452C185.229 112.175 185.45 112.066 186.058 112.066C187.777 112.066 190.933 112.231 191.102 112.231C191.323 112.231 194.536 112.066 196.089 112.066C196.645 112.066 196.919 112.178 196.919 112.452C196.919 112.674 196.753 112.786 196.311 112.839C195.977 112.895 195.703 112.895 195.312 112.951C193.706 113.173 193.541 114.006 193.428 115.612C193.316 117.11 193.372 118.382 193.372 125.696V128.301L193.368 128.297Z" fill="black"/>
<path d="M246.617 142.479C241.243 137.656 239.914 131.34 239.914 126.079C239.914 122.367 241.19 115.882 246.121 110.951C249.446 107.626 254.486 105.022 263.02 105.022C265.238 105.022 268.338 105.187 271.055 105.686C273.16 106.073 274.879 106.241 276.928 106.515C277.315 106.572 277.427 106.793 277.427 107.123C277.427 107.566 277.262 108.23 277.15 110.227C277.037 112.055 277.037 115.102 276.985 115.935C276.928 116.764 276.819 117.098 276.485 117.098C276.099 117.098 276.043 116.712 276.043 115.935C276.043 113.773 275.157 111.503 273.716 110.283C271.776 108.621 267.509 107.123 262.634 107.123C255.263 107.123 251.829 109.285 249.889 111.169C245.844 115.049 244.902 119.981 244.902 125.632C244.902 136.215 253.045 145.913 264.904 145.913C269.059 145.913 272.327 145.413 274.545 143.143C275.709 141.923 276.429 139.488 276.594 138.49C276.707 137.882 276.816 137.66 277.15 137.66C277.427 137.66 277.536 138.047 277.536 138.49C277.536 138.876 276.872 143.698 276.317 145.582C275.983 146.637 275.874 146.746 274.875 147.189C272.658 148.074 268.447 148.465 264.9 148.465C256.588 148.465 250.992 146.415 246.617 142.479Z" fill="black"/>
<path d="M293.66 134.17C293.383 134.17 293.217 134.335 293.105 134.613L290.666 141.54C290.11 143.09 289.724 144.588 289.724 145.473C289.724 146.472 290.332 146.915 291.551 146.915H291.938C292.437 146.915 292.602 147.08 292.602 147.301C292.602 147.579 292.159 147.688 291.773 147.688C290.553 147.688 288.005 147.522 287.397 147.522C286.841 147.522 284.406 147.688 282.079 147.688C281.471 147.688 281.193 147.575 281.193 147.301C281.193 147.08 281.415 146.915 281.858 146.915C282.135 146.915 282.634 146.915 282.965 146.858C285.348 146.637 286.29 144.809 287.232 142.482L298.314 113.282C298.922 111.675 299.091 111.398 299.477 111.398C299.755 111.398 299.976 111.619 300.584 113.169C301.361 114.997 308.897 134.335 311.832 141.263C313.659 145.639 315.265 146.359 316.042 146.637C316.763 146.915 317.54 146.915 317.926 146.915C318.313 146.915 318.59 147.027 318.59 147.301C318.59 147.575 318.369 147.688 317.761 147.688C317.206 147.688 313.051 147.688 309.34 147.575C308.285 147.519 307.955 147.462 307.955 147.188C307.955 147.023 308.12 146.854 308.341 146.802C308.563 146.689 308.897 146.415 308.563 145.582L304.187 134.444C304.074 134.279 303.966 134.166 303.744 134.166H293.66V134.17ZM303.08 132.23C303.301 132.23 303.301 132.065 303.245 131.896L298.869 119.65C298.591 118.873 298.535 118.873 298.261 119.65L294.107 131.896C293.994 132.117 294.107 132.23 294.216 132.23H303.08Z" fill="black"/>
<path d="M325.413 125.692C325.413 118.048 325.413 117.05 325.301 115.552C325.188 114.111 324.745 113.225 323.195 112.891C322.809 112.835 321.919 112.779 321.477 112.779C321.364 112.779 321.143 112.666 321.143 112.501C321.143 112.167 321.42 112.058 321.919 112.058C324.302 112.058 327.35 112.223 327.68 112.223C328.843 112.223 331.669 112.058 333.94 112.058C340.034 112.058 342.252 114.055 343.025 114.719C344.08 115.661 345.465 117.823 345.465 120.926C345.465 127.077 340.368 131.566 333.441 131.566C333.219 131.566 332.664 131.566 332.386 131.509C332.165 131.509 331.887 131.397 331.887 131.175C331.887 130.732 332.221 130.732 333.272 130.732C337.648 130.732 341.307 127.741 341.307 122.863C341.307 122.142 341.472 118.817 338.924 116.16C336.21 113.278 333.05 113.556 332.052 113.556C331.332 113.556 330.502 113.668 330.168 113.833C329.89 113.946 329.834 114.333 329.834 114.719V133.889C329.834 138.156 329.834 142.145 330.056 144.138C330.221 145.466 330.498 146.577 331.996 146.742C332.66 146.855 333.767 146.963 334.214 146.963C334.435 146.963 334.548 147.076 334.548 147.241C334.548 147.519 334.326 147.684 333.771 147.684C330.889 147.684 327.785 147.519 327.511 147.519C327.455 147.519 324.186 147.684 322.636 147.684C322.137 147.684 321.859 147.571 321.859 147.241C321.859 147.076 321.968 146.963 322.246 146.963C322.632 146.963 323.244 146.851 323.687 146.742C324.685 146.577 324.963 145.466 325.128 144.138C325.406 142.141 325.406 138.152 325.406 133.997V125.685L325.413 125.692Z" fill="black"/>
<path d="M356.44 125.692C356.44 118.378 356.44 117.05 356.328 115.552C356.219 114.055 355.885 113.226 354.722 113.004C354.166 112.892 353.78 112.892 353.446 112.839C353.059 112.783 352.838 112.674 352.838 112.452C352.838 112.175 353.059 112.066 353.667 112.066C355.386 112.066 358.542 112.231 358.711 112.231C358.932 112.231 362.145 112.066 363.698 112.066C364.254 112.066 364.528 112.179 364.528 112.452C364.528 112.674 364.363 112.786 363.92 112.839C363.586 112.895 363.312 112.895 362.922 112.952C361.315 113.173 361.15 114.006 361.038 115.612C360.925 117.11 360.981 118.382 360.981 125.696V134.009C360.981 138.276 360.925 142.152 361.203 144.149C361.424 145.755 361.646 146.367 363.087 146.697C363.807 146.862 364.971 146.919 365.192 146.919C365.691 146.975 365.8 147.084 365.8 147.305C365.8 147.526 365.579 147.692 365.023 147.692C362.197 147.692 358.985 147.526 358.707 147.526C358.542 147.526 355.273 147.692 353.72 147.692C353.221 147.692 352.834 147.579 352.834 147.305C352.834 147.084 353.055 146.919 353.555 146.919C353.832 146.919 354.44 146.862 354.883 146.753C355.825 146.532 355.99 145.425 356.159 144.093C356.437 142.096 356.437 138.163 356.437 134.009V125.696L356.44 125.692Z" fill="black"/>
<path d="M388.41 134.001C388.41 138.268 388.466 142.201 388.688 144.25C388.853 145.579 388.965 146.356 390.35 146.69C391.015 146.855 392.069 146.911 392.512 146.911C392.955 146.911 393.176 147.076 393.176 147.245C393.176 147.523 393.011 147.688 392.456 147.688C389.63 147.688 386.361 147.523 386.14 147.523C385.918 147.523 382.649 147.688 381.208 147.688C380.6 147.688 380.379 147.575 380.379 147.301C380.379 147.136 380.544 146.915 380.987 146.915C381.43 146.915 381.764 146.915 382.207 146.858C383.261 146.693 383.426 146.029 383.648 144.145C383.869 142.149 383.869 138.159 383.869 134.005V114.224C382.042 114.224 379.103 114.224 376.889 114.28C373.342 114.336 372.566 114.888 371.793 116.051C371.293 116.828 371.072 117.492 370.963 117.77C370.798 118.157 370.685 118.213 370.464 118.213C370.243 118.213 370.186 117.992 370.186 117.714C370.13 117.38 370.963 113.725 371.293 112.227C371.459 111.563 371.627 111.342 371.793 111.342C372.179 111.342 373.234 111.841 374.232 111.95C376.172 112.171 377.722 112.227 377.778 112.227H395.953C397.503 112.227 399.166 112.115 399.943 111.95C400.663 111.784 400.828 111.728 400.997 111.728C401.218 111.728 401.331 112.006 401.331 112.227C401.331 113.777 401.218 117.436 401.218 117.879C401.218 118.378 400.997 118.543 400.832 118.543C400.554 118.543 400.445 118.322 400.445 117.879C400.445 117.714 400.445 117.658 400.389 117.102C400.168 114.884 399.447 114.333 393.852 114.276C391.746 114.276 390.028 114.22 388.421 114.22V134.001H388.41Z" fill="black"/>
<path d="M411.074 134.17C410.797 134.17 410.632 134.335 410.519 134.613L408.08 141.54C407.524 143.09 407.138 144.588 407.138 145.473C407.138 146.472 407.746 146.915 408.965 146.915H409.352C409.851 146.915 410.016 147.08 410.016 147.301C410.016 147.579 409.573 147.688 409.187 147.688C407.967 147.688 405.419 147.522 404.811 147.522C404.255 147.522 401.82 147.688 399.493 147.688C398.885 147.688 398.607 147.575 398.607 147.301C398.607 147.08 398.829 146.915 399.272 146.915C399.549 146.915 400.048 146.915 400.379 146.858C402.762 146.637 403.704 144.809 404.646 142.482L415.728 113.282C416.336 111.675 416.505 111.398 416.891 111.398C417.169 111.398 417.39 111.619 417.998 113.169C418.775 114.997 426.311 134.335 429.246 141.263C431.073 145.639 432.679 146.359 433.456 146.637C434.177 146.915 434.954 146.915 435.34 146.915C435.727 146.915 436.004 147.027 436.004 147.301C436.004 147.575 435.783 147.688 435.175 147.688C434.62 147.688 430.465 147.688 426.754 147.575C425.699 147.519 425.369 147.462 425.369 147.188C425.369 147.023 425.534 146.854 425.755 146.802C425.977 146.689 426.311 146.415 425.977 145.582L421.601 134.444C421.488 134.279 421.38 134.166 421.158 134.166H411.074V134.17ZM420.494 132.23C420.715 132.23 420.715 132.065 420.659 131.896L416.283 119.65C416.006 118.873 415.949 118.873 415.675 119.65L411.521 131.896C411.408 132.117 411.521 132.23 411.63 132.23H420.494Z" fill="black"/>
<path d="M447.315 134.114C447.315 140.486 447.537 143.699 448.479 144.584C449.364 145.361 450.471 145.691 454.295 145.691C456.735 145.691 458.949 145.691 460.169 144.141C460.724 143.312 461.111 142.201 461.223 141.372C461.279 140.929 461.388 140.707 461.666 140.707C461.887 140.707 462 140.873 462 141.428C462 141.983 461.666 145.14 461.336 146.416C461.002 147.523 461.058 147.8 458.397 147.8C454.629 147.8 450.475 147.523 444.932 147.523C443.104 147.523 441.994 147.688 440.057 147.688C439.502 147.688 439.172 147.575 439.172 147.245C439.172 147.08 439.337 146.911 439.779 146.911C440.222 146.911 440.665 146.911 441.108 146.798C442.05 146.633 442.384 145.522 442.549 144.194C442.883 142.089 442.771 138.264 442.771 133.997V125.685C442.771 118.371 442.771 117.151 442.658 115.657C442.549 114.107 442.324 113.109 440.44 112.888C440.106 112.831 439.498 112.831 439.055 112.831C438.669 112.831 438.447 112.666 438.447 112.445C438.447 112.167 438.725 112.058 439.277 112.058C441.603 112.058 444.928 112.223 445.037 112.223C445.814 112.223 449.192 112.058 450.745 112.058C451.301 112.058 451.466 112.223 451.466 112.445C451.466 112.666 451.188 112.831 450.858 112.831C450.471 112.831 449.916 112.888 449.36 112.944C447.811 113.165 447.477 114.051 447.364 115.657C447.255 117.155 447.308 118.371 447.308 125.685V134.106L447.315 134.114Z" fill="black"/>
</svg>
